<svg width="34px" height="37px" viewBox="0 0 34 37" version="1.1" xmlns="http://www.w3.org/2000/svg" xmlns:xlink="http://www.w3.org/1999/xlink" class="pe-icon--logo">
    <g>
        <path d="M26.3899907,2.52775701 C34.1700187,6.96014953 35.9809439,16.9000093 30.5678785,26.9558832 C25.8104393,35.795771 15.4224299,39.5711542 7.68216822,35.0706402 C-0.0598224299,30.5694346 -1.57059813,18.0127757 1.75628972,10.7867103 C6.58703738,0.294271028 17.7940607,-2.37093925 26.3899907,2.52775701"  fill="#007fa3"></path>
        <path d="M16.3744019,28.7185701 C16.1375327,28.5339159 15.871271,28.4071822 15.6032804,28.3534112 C15.5119907,28.3357757 15.4182804,28.3257477 15.3257804,28.3257477 C14.8197103,28.3257477 14.3236682,28.604285 13.9991402,29.0721449 C13.7280374,29.4606449 13.6172103,29.9248738 13.6891355,30.3756168 C13.7346075,30.6622804 13.8423224,30.9115981 14.0010421,31.0974626 C14.1792991,31.3075327 14.4521308,31.4679813 14.7901449,31.564285 C14.9856916,31.6185748 15.1864252,31.6472757 15.3866402,31.6472757 L15.3871589,31.6472757 C15.8237243,31.6472757 16.2165467,31.5163925 16.5217103,31.2686308 C16.8766682,30.9797196 17.0699673,30.5673598 17.0656449,30.1083178 C17.0616682,29.5726822 16.8031869,29.0524346 16.3744019,28.7185701 M26.209486,10.1540794 C27.7323645,11.7800047 28.2066215,14.2474206 27.941743,16.2708364 C27.6391729,18.5783224 26.2407804,20.7134299 23.9144486,22.1291121 C22.0694626,23.2517336 19.6459626,23.6997103 17.2611916,23.7209766 C17.2421729,24.0991028 17.1666168,25.4015374 17.1285794,25.6076308 C17.0725607,25.9114112 16.966229,26.0753178 16.8360374,26.2454486 C16.5799766,26.5791402 16.1356308,26.794743 15.6943972,26.9204393 C15.3435888,27.0202009 14.996757,27.0630794 14.7507243,27.0630794 C14.7090561,27.0630794 14.6684252,27.0608318 14.6286589,27.0558178 C14.3693131,27.0264252 14.0814393,26.9045327 13.9033551,26.7058738 C13.7256168,26.507215 13.6248178,26.2559953 13.6013037,25.9714065 L13.5814206,25.7143084 C13.5309346,25.4928271 13.2546449,14.2806168 13.308243,14.4801402 C13.3481822,13.136729 15.5171776,12.9022804 16.6940888,13.1394953 C17.8734206,13.377229 17.5748271,14.8102009 17.543014,16.5715047 C17.543014,16.5715047 17.4869953,18.8878084 17.378243,21.3353411 C18.8795093,21.2765561 20.0723271,20.8486355 21.1887243,20.2939813 C23.4433037,19.1763738 24.6366402,17.4620981 24.6366402,14.9371075 C24.6366402,12.4121168 22.1783879,9.58438318 17.6438131,9.58438318 C13.1094112,9.58438318 11.1629346,10.7280981 8.96731308,12.544729 C8.47230841,12.9541495 8.09107009,13.3668551 7.73040654,13.6384766 C7.36991589,13.910271 6.41241121,13.9517664 6.15565888,13.3160234 C5.84634579,12.5495701 6.42434112,11.6951121 6.76391121,11.281715 C7.29712617,10.6326589 8.61252804,9.32538318 10.0702243,8.56584579 C11.7398925,7.69427103 13.7826729,6.75561215 16.626486,6.68385981 C19.1993692,6.61885047 23.2615888,6.82719159 26.1877009,10.1322944" fill="#ffffff"></path>
    </g>
</svg>
