<svg xmlns="http://www.w3.org/2000/svg" x="0px" y="0px" width="280" height="32" viewBox="0 0 280 32"><path d="m 255.91137,16.316 c -4.079,0 -7.526,3.49 -7.526,7.622 0,4.7 3.192,8.108 7.59,8.108 4.147,0 7.521,-3.637 7.521,-8.108 -0.001,-4.202 -3.404,-7.622 -7.585,-7.622 m 0.063,13.813 c -3.511,0 -4.783,-3.66 -4.783,-6.116 0,-2.234 1.281,-5.774 4.72,-5.774 3.298,0 4.782,3.333 4.782,5.699 0,3.079 -1.62,6.191 -4.719,6.191 m -71.537,-13.812 c 2.664,0 5.514,1.185 5.514,4.503 0,3.207 -3.129,5.126 -6.385,5.131 -0.011,-0.532 -0.02,-1.082 -0.026,-1.634 2.463,-0.188 3.785,-1.384 3.785,-3.357 0,-1.697 -1.376,-2.886 -3.35,-2.886 l -1.591,0 c -0.003,4.942 0.096,12.046 0.294,13.809 -1.058,-0.212 -1.933,-0.219 -3.023,0 0.25,-2.15 0.413,-13.538 -0.015,-15.57 0,0 2.001,0.069 2.441,0.069 0.523,-0.061 1.817,-0.065 2.356,-0.065 m 25.525,0.113 c -0.772,3.023 -3.999,11.749 -5.553,15.457 1.016,-0.144 2.091,-0.109 2.588,-0.028 0.517,-1.663 1.076,-3.642 1.322,-4.383 1.612,-0.117 3.517,-0.117 5.433,0 0.581,1.553 0.922,2.654 1.449,4.375 0.989,-0.092 2.005,-0.081 3.08,0.013 -1.541,-3.702 -5.125,-13.248 -5.698,-15.436 -0.779,0.094 -1.774,0.094 -2.621,0.002 m -1.025,8.966 c 0,0 1.479,-4.397 1.979,-5.913 0,0 1.534,4.346 2.076,5.913 -1.643,0.168 -2.473,0.168 -4.055,0 m -12.867,4.524 c 1.624,0.071 5.505,-0.158 5.505,-0.158 0.014,1.669 -0.099,2.166 -0.099,2.166 -1.447,-0.193 -5.805,-0.286 -8.166,0 0.349,-3.767 0.231,-11.538 0.017,-15.567 2.179,0.184 6.35,0.147 8.116,0 l 0,2.176 c -1.512,-0.143 -3.921,-0.287 -5.296,-0.244 0,0 -0.055,3.606 -0.012,4.527 2.455,0.175 4.26,-0.115 5.033,-0.171 l 0,2.171 c 0,0 -2.85,-0.281 -5.025,-0.113 -0.073,1.452 -0.073,3.603 -0.073,5.213 m 83.481,1.627 c 0.008,0.039 0.061,0.315 0.058,0.319 -0.675,-0.104 -1.697,-0.12 -2.341,-0.019 -1.226,-1.808 -6.069,-8.43 -7.982,-10.901 -0.069,3.616 -0.113,9.085 0.11,10.888 -0.29,0.009 -0.721,-0.016 -0.94,-0.016 -0.653,0 -0.941,-0.033 -1.527,0.048 0.32,-1.869 0.396,-13.387 0,-15.416 0.931,0.019 1.696,0.032 1.942,0.013 0.219,-0.013 0.366,-0.035 0.366,-0.035 0,0 5.209,6.986 7.928,10.634 0.029,-1.379 0.153,-8.315 -0.108,-10.667 0.366,0.052 0.818,0.182 1.271,0.176 0.413,-0.008 0.859,-0.107 1.268,-0.18 -0.369,2.94 -0.505,12.956 -0.045,15.156 m -48.284,-11.065 c 0,2.494 -1.685,3.931 -3.306,4.251 1.182,1.513 5.438,7.158 5.438,7.158 -1.075,-0.16 -2.654,-0.134 -3.443,-0.041 -1.355,-2.123 -3.652,-5.407 -4.53,-6.467 -0.016,-0.608 -0.022,-1.076 -0.033,-1.675 2.639,0.055 3.197,-1.701 3.197,-2.945 0,-1.658 -1.504,-2.524 -2.991,-2.524 l -1.292,0 c -0.113,2.96 0.099,10.236 0.229,13.619 -1.026,-0.105 -2.169,-0.089 -2.986,0 0.348,-2.479 0.285,-13.769 0,-15.492 0,0 1.629,0.125 2.335,0.085 0.637,-0.036 1.232,-0.067 1.985,-0.067 1.622,0 5.397,0.398 5.397,4.098 m 10.965,2.576 c 1.699,1.083 2.994,2.093 2.994,4.398 0,3.329 -2.606,4.511 -4.838,4.511 -1.84,0 -3.787,-0.971 -4.689,-1.668 0.337,-0.667 0.689,-1.355 0.95,-2.301 1.003,1.12 2.544,1.912 3.604,1.912 1.399,0 2.235,-0.763 2.235,-2.042 0.057,-0.957 -0.631,-1.637 -1.496,-2.36 -0.628,-0.522 -2.222,-1.553 -2.603,-1.862 -1.259,-1.025 -2.029,-1.881 -2.029,-3.514 0,-2.176 1.932,-3.816 4.499,-3.816 1.312,0 2.541,0.392 4.044,1.394 -0.368,0.559 -0.882,1.417 -1.149,2.208 -0.604,-0.818 -1.533,-1.679 -2.816,-1.679 -1.215,0 -1.971,0.705 -1.971,1.834 0,0.371 0.268,0.791 0.818,1.285 0.546,0.473 1.302,0.999 2.447,1.7" style="fill:#000000" /><path d="m 3.991366,18.76 1.023,0 4.571,10.258 -1.492,0 -1.361,-3.023 -4.347,0 -1.276,3.023 -1.5,0 4.382,-10.258 z m 2.146,5.944 -1.645,-3.702 -1.529,3.702 3.174,0 z m 6.958,-5.885 1.46,0 0,8.867 4.595,0 0,1.332 -6.055,0 0,-10.199 z m 21.808,0 1.46,0 -4.122,10.24 -0.321,0 -3.334,-8.291 -3.367,8.293 -0.317,0 -4.107,-10.242 1.467,0 2.811,7.031 2.835,-7.031 1.377,0 2.844,7.031 2.774,-7.031 z m 7.641,-0.059 1.026,0 4.571,10.258 -1.494,0 -1.356,-3.023 -4.352,0 -1.275,3.023 -1.5,0 4.38,-10.258 z m 2.147,5.944 -1.648,-3.702 -1.528,3.702 3.176,0 z m 12.05,-5.885 1.77,0 -3.769,4.805 0,5.395 -1.494,0 0,-5.393 -3.767,-4.807 1.764,0 2.726,3.516 2.77,-3.516 z m 8.116,5.93 -1.114,-0.674 c -0.695,-0.426 -1.188,-0.844 -1.482,-1.251 -0.297,-0.415 -0.444,-0.886 -0.444,-1.421 0,-0.814 0.278,-1.453 0.833,-1.961 0.556,-0.5 1.285,-0.752 2.176,-0.752 0.85,0 1.63,0.246 2.345,0.717 l 0,1.659 c -0.738,-0.703 -1.53,-1.06 -2.374,-1.06 -0.481,0 -0.871,0.106 -1.179,0.326 -0.306,0.221 -0.458,0.508 -0.458,0.843 0,0.311 0.109,0.6 0.335,0.864 0.23,0.264 0.59,0.551 1.092,0.842 l 1.114,0.657 c 1.244,0.745 1.864,1.688 1.864,2.833 0,0.814 -0.27,1.486 -0.815,1.992 -0.548,0.518 -1.263,0.773 -2.14,0.773 -1.005,0 -1.925,-0.309 -2.751,-0.926 l 0,-1.856 c 0.79,0.996 1.699,1.496 2.74,1.496 0.455,0 0.839,-0.127 1.141,-0.381 0.306,-0.252 0.456,-0.572 0.456,-0.955 -10e-4,-0.623 -0.451,-1.213 -1.339,-1.765 m 14.448,-5.93 1.459,0 0,8.867 4.594,0 0,1.332 -6.054,0 0.001,-10.199 0,0 z m 10.32,0 5.781,0 0,1.299 -4.321,0 0,3.113 4.174,0 0,1.303 -4.174,0 0,3.172 4.463,0 0,1.297 -5.923,0 0,-10.184 z m 14.021004,-0.059 1.028,0 4.571,10.258 -1.488,0 -1.366,-3.023 -4.353,0 -1.273,3.023 -1.499004,0 4.380004,-10.258 z m 2.145,5.944 -1.647,-3.702 -1.524,3.702 3.171,0 z m 7.604,4.314 0,-10.199 2.557,0 c 1.028,0 1.85,0.257 2.456,0.77 0.604,0.512 0.906,1.203 0.906,2.07 0,0.602 -0.146,1.105 -0.445,1.536 -0.296,0.444 -0.722,0.761 -1.275,0.978 0.323,0.207 0.642,0.508 0.956,0.879 0.314,0.367 0.751,1.014 1.312,1.926 0.354,0.582 0.644,1.02 0.855,1.314 l 0.542,0.727 -1.738,0 -0.441,-0.672 c -0.014,-0.023 -0.046,-0.066 -0.091,-0.123 l -0.285,-0.402 -0.451,-0.748 -0.484,-0.793 c -0.304,-0.414 -0.585,-0.75 -0.837,-1.002 -0.244,-0.25 -0.475,-0.424 -0.672,-0.529 -0.208,-0.114 -0.544,-0.17 -1.023,-0.17 l -0.378,0 0,4.439 -1.464,0 0,-10e-4 z m 1.902,-8.959 -0.438,0 0,3.225 0.553,0 c 0.739,0 1.245,-0.06 1.52,-0.188 0.277,-0.134 0.488,-0.319 0.643,-0.582 0.155,-0.25 0.234,-0.541 0.234,-0.865 0,-0.328 -0.088,-0.612 -0.257,-0.867 -0.175,-0.27 -0.412,-0.449 -0.721,-0.559 -0.314,-0.105 -0.822,-0.164 -1.534,-0.164 m 18.174,-1.24 1.384,0 0,10.199 -1.248,0 -6.819,-7.854 0,7.854 -1.372,0 0,-10.199 1.182,0 6.872,7.924 0,-7.924 z m 6.578,0 1.458,0 0,10.199 -1.458,0 0,-10.199 z m 14.815,0 1.389,0 0,10.199 -1.258,0 -6.818,-7.854 0,7.854 -1.375,0 0,-10.199 1.183,0 6.88,7.924 0,-7.924 -0.001,0 z m 11.183,5.172 3.419,0 0,4.326 c -1.255,0.545 -2.5,0.82 -3.733,0.82 -1.688,0 -3.041,-0.49 -4.053,-1.482 -1.007,-0.979 -1.518,-2.195 -1.518,-3.645 0,-1.52 0.526,-2.793 1.574,-3.799 1.05,-1.012 2.354,-1.521 3.938,-1.521 0.566,0 1.114,0.066 1.635,0.182 0.514,0.135 1.164,0.35 1.955,0.693 l 0,1.484 c -1.219,-0.709 -2.423,-1.06 -3.624,-1.06 -1.112,0 -2.048,0.378 -2.815,1.142 -0.77,0.754 -1.145,1.692 -1.145,2.792 0,1.157 0.375,2.104 1.145,2.833 0.768,0.738 1.746,1.111 2.948,1.111 0.583,0 1.283,-0.135 2.096,-0.4 l 0.139,-0.041 0,-2.134 -1.96,0 0,-1.301 z" /><path d="m 256.302,0.292 c -4.079,0 -7.526,3.49 -7.526,7.622 0,4.7 3.192,8.108 7.59,8.108 4.147,0 7.521,-3.637 7.521,-8.108 -10e-4,-4.202 -3.404,-7.622 -7.585,-7.622 m 0.063,13.813 c -3.511,0 -4.783,-3.66 -4.783,-6.116 0,-2.234 1.281,-5.774 4.72,-5.774 3.298,0 4.782,3.333 4.782,5.699 0,3.079 -1.62,6.191 -4.719,6.191 M 184.828,0.293 c 2.664,0 5.514,1.185 5.514,4.503 0,3.207 -3.129,5.126 -6.385,5.131 -0.011,-0.532 -0.02,-1.082 -0.026,-1.634 2.463,-0.188 3.785,-1.384 3.785,-3.357 0,-1.697 -1.376,-2.886 -3.35,-2.886 l -1.591,0 c -0.003,4.942 0.096,12.046 0.294,13.809 -1.058,-0.212 -1.933,-0.219 -3.023,0 0.25,-2.15 0.413,-13.538 -0.015,-15.57 0,0 2.001,0.069 2.441,0.069 0.523,-0.061 1.817,-0.065 2.356,-0.065 m 25.525,0.113 c -0.772,3.023 -3.999,11.749 -5.553,15.457 1.016,-0.144 2.091,-0.109 2.588,-0.028 0.517,-1.663 1.076,-3.642 1.322,-4.383 1.612,-0.117 3.517,-0.117 5.433,0 0.581,1.553 0.922,2.654 1.449,4.375 0.989,-0.092 2.005,-0.081 3.08,0.013 -1.541,-3.702 -5.125,-13.248 -5.698,-15.436 -0.779,0.094 -1.774,0.094 -2.621,0.002 m -1.025,8.966 c 0,0 1.479,-4.397 1.979,-5.913 0,0 1.534,4.346 2.076,5.913 -1.643,0.168 -2.473,0.168 -4.055,0 m -12.867,4.524 c 1.624,0.071 5.505,-0.158 5.505,-0.158 0.013,1.669 -0.099,2.166 -0.099,2.166 -1.447,-0.193 -5.805,-0.286 -8.166,0 0.349,-3.767 0.231,-11.538 0.017,-15.567 2.179,0.184 6.35,0.147 8.116,0 l 0,2.176 c -1.512,-0.143 -3.921,-0.287 -5.296,-0.244 0,0 -0.055,3.606 -0.012,4.527 2.455,0.175 4.26,-0.115 5.033,-0.171 l 0,2.171 c 0,0 -2.85,-0.281 -5.025,-0.113 -0.073,1.452 -0.073,3.603 -0.073,5.213 m 83.481,1.627 c 0.008,0.039 0.061,0.315 0.058,0.319 -0.675,-0.104 -1.697,-0.12 -2.341,-0.019 -1.226,-1.808 -6.069,-8.43 -7.982,-10.901 -0.069,3.616 -0.113,9.085 0.11,10.888 -0.29,0.009 -0.721,-0.016 -0.94,-0.016 -0.653,0 -0.941,-0.033 -1.527,0.048 0.32,-1.869 0.396,-13.387 0,-15.416 0.931,0.019 1.696,0.032 1.942,0.013 0.219,-0.013 0.366,-0.035 0.366,-0.035 0,0 5.209,6.986 7.928,10.634 0.029,-1.379 0.153,-8.315 -0.108,-10.667 0.366,0.052 0.818,0.182 1.271,0.176 0.413,-0.008 0.859,-0.107 1.268,-0.18 -0.369,2.94 -0.505,12.956 -0.045,15.156 M 231.658,4.458 c 0,2.494 -1.685,3.931 -3.306,4.251 1.182,1.513 5.438,7.158 5.438,7.158 -1.075,-0.16 -2.654,-0.134 -3.443,-0.041 -1.355,-2.123 -3.652,-5.407 -4.53,-6.467 -0.015,-0.608 -0.022,-1.076 -0.033,-1.675 2.639,0.055 3.197,-1.701 3.197,-2.945 0,-1.658 -1.504,-2.524 -2.991,-2.524 l -1.292,0 c -0.113,2.96 0.099,10.236 0.229,13.619 -1.026,-0.105 -2.169,-0.089 -2.986,0 0.348,-2.479 0.285,-13.769 0,-15.492 0,0 1.629,0.125 2.335,0.085 0.637,-0.036 1.232,-0.067 1.985,-0.067 1.622,0 5.397,0.398 5.397,4.098 m 10.965,2.576 c 1.699,1.083 2.994,2.093 2.994,4.398 0,3.329 -2.606,4.511 -4.838,4.511 -1.84,0 -3.787,-0.971 -4.689,-1.668 0.337,-0.667 0.689,-1.355 0.95,-2.301 1.003,1.12 2.544,1.912 3.604,1.912 1.399,0 2.235,-0.763 2.235,-2.042 0.057,-0.957 -0.631,-1.637 -1.496,-2.36 -0.628,-0.522 -2.222,-1.553 -2.603,-1.862 -1.259,-1.025 -2.029,-1.881 -2.029,-3.514 0,-2.176 1.932,-3.816 4.499,-3.816 1.312,0 2.541,0.392 4.044,1.394 -0.368,0.559 -0.882,1.417 -1.149,2.208 -0.604,-0.818 -1.533,-1.679 -2.816,-1.679 -1.215,0 -1.971,0.705 -1.971,1.834 0,0.371 0.268,0.791 0.818,1.285 0.546,0.473 1.302,0.999 2.447,1.7" style="fill:#ffffff" /><path d="m 4.382,2.736 1.023,0 4.571,10.258 -1.492,0 -1.361,-3.023 -4.347,0 L 1.5,12.994 0,12.994 4.382,2.736 Z M 6.528,8.68 4.883,4.978 3.354,8.68 l 3.174,0 z m 6.958,-5.885 1.46,0 0,8.867 4.595,0 0,1.332 -6.055,0 0,-10.199 z m 21.808,0 1.46,0 -4.122,10.24 -0.321,0 -3.334,-8.291 -3.367,8.293 -0.317,0 -4.107,-10.242 1.467,0 2.811,7.031 2.835,-7.031 1.377,0 2.844,7.031 2.774,-7.031 z m 7.641,-0.059 1.026,0 4.571,10.258 -1.494,0 -1.356,-3.023 -4.352,0 -1.275,3.023 -1.5,0 4.38,-10.258 z m 2.147,5.944 -1.648,-3.702 -1.528,3.702 3.176,0 z m 12.05,-5.885 1.77,0 -3.769,4.805 0,5.395 -1.494,0 0,-5.393 -3.767,-4.807 1.764,0 2.726,3.516 2.77,-3.516 z m 8.116,5.93 -1.114,-0.674 C 63.439,7.625 62.946,7.207 62.652,6.8 62.355,6.385 62.208,5.914 62.208,5.379 c 0,-0.814 0.278,-1.453 0.833,-1.961 0.556,-0.5 1.285,-0.752 2.176,-0.752 0.85,0 1.63,0.246 2.345,0.717 l 0,1.659 c -0.738,-0.703 -1.53,-1.06 -2.374,-1.06 -0.481,0 -0.871,0.106 -1.179,0.326 -0.306,0.221 -0.458,0.508 -0.458,0.843 0,0.311 0.109,0.6 0.335,0.864 0.23,0.264 0.59,0.551 1.092,0.842 l 1.114,0.657 c 1.244,0.745 1.864,1.688 1.864,2.833 0,0.814 -0.27,1.486 -0.815,1.992 -0.548,0.518 -1.263,0.773 -2.14,0.773 -1.005,0 -1.925,-0.309 -2.751,-0.926 l 0,-1.856 c 0.79,0.996 1.699,1.496 2.74,1.496 0.455,0 0.839,-0.127 1.141,-0.381 0.306,-0.252 0.456,-0.572 0.456,-0.955 C 66.586,9.867 66.136,9.277 65.248,8.725 m 14.448,-5.93 1.459,0 0,8.867 4.594,0 0,1.332 -6.054,0 0.001,-10.199 0,0 z m 10.32,0 5.781,0 0,1.299 -4.321,0 0,3.113 4.174,0 0,1.303 -4.174,0 0,3.172 4.463,0 0,1.297 -5.923,0 0,-10.184 z m 14.021,-0.059 1.028,0 4.571,10.258 -1.488,0 -1.366,-3.023 -4.353,0 -1.273,3.023 -1.499,0 4.38,-10.258 z m 2.145,5.944 -1.647,-3.702 -1.524,3.702 3.171,0 z m 7.604,4.314 0,-10.199 2.557,0 c 1.028,0 1.85,0.257 2.456,0.77 0.604,0.512 0.906,1.203 0.906,2.07 0,0.602 -0.146,1.105 -0.445,1.536 -0.296,0.444 -0.722,0.761 -1.275,0.978 0.323,0.207 0.642,0.508 0.956,0.879 0.314,0.367 0.751,1.014 1.312,1.926 0.354,0.582 0.644,1.02 0.855,1.314 l 0.542,0.727 -1.738,0 -0.441,-0.672 C 119.457,12.3 119.425,12.257 119.38,12.2 l -0.285,-0.402 -0.451,-0.748 -0.484,-0.793 c -0.304,-0.414 -0.585,-0.75 -0.837,-1.002 -0.244,-0.25 -0.475,-0.424 -0.672,-0.529 -0.208,-0.114 -0.544,-0.17 -1.023,-0.17 l -0.378,0 0,4.439 -1.464,0 0,-10e-4 z m 1.902,-8.959 -0.438,0 0,3.225 0.553,0 c 0.739,0 1.245,-0.06 1.52,-0.188 0.277,-0.134 0.488,-0.319 0.643,-0.582 0.155,-0.25 0.234,-0.541 0.234,-0.865 0,-0.328 -0.088,-0.612 -0.257,-0.867 -0.175,-0.27 -0.412,-0.449 -0.721,-0.559 -0.314,-0.105 -0.822,-0.164 -1.534,-0.164 m 18.174,-1.24 1.384,0 0,10.199 -1.248,0 -6.819,-7.854 0,7.854 -1.372,0 0,-10.199 1.182,0 6.872,7.924 0,-7.924 z m 6.578,0 1.458,0 0,10.199 -1.458,0 0,-10.199 z m 14.815,0 1.389,0 0,10.199 -1.258,0 -6.818,-7.854 0,7.854 -1.375,0 0,-10.199 1.183,0 6.88,7.924 0,-7.924 -0.001,0 z m 11.183,5.172 3.419,0 0,4.326 c -1.255,0.545 -2.5,0.82 -3.733,0.82 -1.688,0 -3.041,-0.49 -4.053,-1.482 -1.007,-0.979 -1.518,-2.195 -1.518,-3.645 0,-1.52 0.526,-2.793 1.574,-3.799 1.05,-1.012 2.354,-1.521 3.938,-1.521 0.566,0 1.114,0.066 1.635,0.182 0.514,0.135 1.164,0.35 1.955,0.693 l 0,1.484 c -1.219,-0.709 -2.423,-1.06 -3.624,-1.06 -1.112,0 -2.048,0.378 -2.815,1.142 -0.77,0.754 -1.145,1.692 -1.145,2.792 0,1.157 0.375,2.104 1.145,2.833 0.768,0.738 1.746,1.111 2.948,1.111 0.583,0 1.283,-0.135 2.096,-0.4 l 0.139,-0.041 0,-2.134 -1.96,0 0,-1.301 z" style="fill:#ffffff" /></svg>
